<svg width="23" height="22" viewBox="0 0 23 22" fill="none" xmlns="http://www.w3.org/2000/svg">
<path fill-rule="evenodd" clip-rule="evenodd" d="M15.8892 0C19.6458 0 22.1699 2.6158 22.1699 6.5076V15.4924C22.1699 19.3842 19.6458 22 15.888 22H6.27962C2.52293 22 0 19.3842 0 15.4924V6.5076C0 2.6158 2.52293 0 6.27962 0H15.8892ZM15.8892 1.65H6.27962C3.47513 1.65 1.66274 3.5563 1.66274 6.5076V15.4924C1.66274 18.4437 3.47513 20.35 6.27962 20.35H15.888C18.6936 20.35 20.5071 18.4437 20.5071 15.4924V6.5076C20.5071 3.5563 18.6936 1.65 15.8892 1.65ZM15.6181 7.8067C15.9429 8.129 15.9429 8.6504 15.6181 8.9727L10.3572 14.1933C10.1954 14.355 9.98254 14.4353 9.76971 14.4353C9.55799 14.4353 9.34405 14.355 9.18221 14.1933L6.55065 11.583C6.22586 11.2607 6.22586 10.7393 6.55065 10.417C6.87544 10.0947 7.40086 10.0947 7.72565 10.417L9.76971 12.4432L14.4431 7.8067C14.7679 7.4844 15.2933 7.4844 15.6181 7.8067Z" fill="#FF5956"/>
</svg>
