<svg width="133" height="54" viewBox="0 0 133 54" fill="none" xmlns="http://www.w3.org/2000/svg">
<path d="M1.2358 21.7614V19.2472L8.64205 7.54545H10.7386V11.125H9.46023L4.47443 19.0256V19.1619H14.8125V21.7614H1.2358ZM9.5625 25V20.9943L9.59659 19.8693V7.54545H12.5795V25H9.5625Z" fill="black"/>
<path d="M11.3864 44.1818C11.3864 45.4242 11.1591 46.4924 10.7045 47.3864C10.25 48.2765 9.62689 48.9621 8.83523 49.4432C8.04735 49.9205 7.15152 50.1591 6.14773 50.1591C5.14015 50.1591 4.24053 49.9205 3.44886 49.4432C2.66098 48.9621 2.03977 48.2746 1.58523 47.3807C1.13068 46.4867 0.903409 45.4205 0.903409 44.1818C0.903409 42.9394 1.13068 41.8731 1.58523 40.983C2.03977 40.089 2.66098 39.4034 3.44886 38.9261C4.24053 38.4451 5.14015 38.2045 6.14773 38.2045C7.15152 38.2045 8.04735 38.4451 8.83523 38.9261C9.62689 39.4034 10.25 40.089 10.7045 40.983C11.1591 41.8731 11.3864 42.9394 11.3864 44.1818ZM9.64773 44.1818C9.64773 43.2348 9.49432 42.4375 9.1875 41.7898C8.88447 41.1383 8.4678 40.6458 7.9375 40.3125C7.41098 39.9754 6.81439 39.8068 6.14773 39.8068C5.47727 39.8068 4.87879 39.9754 4.35227 40.3125C3.82576 40.6458 3.40909 41.1383 3.10227 41.7898C2.79924 42.4375 2.64773 43.2348 2.64773 44.1818C2.64773 45.1288 2.79924 45.928 3.10227 46.5795C3.40909 47.2273 3.82576 47.7197 4.35227 48.0568C4.87879 48.3902 5.47727 48.5568 6.14773 48.5568C6.81439 48.5568 7.41098 48.3902 7.9375 48.0568C8.4678 47.7197 8.88447 47.2273 9.1875 46.5795C9.49432 45.928 9.64773 45.1288 9.64773 44.1818ZM15.1378 44.8182V50H13.4389V41.2727H15.0696V42.6932H15.1776C15.3783 42.2311 15.6927 41.8598 16.1207 41.5795C16.5526 41.2992 17.0961 41.1591 17.7514 41.1591C18.3461 41.1591 18.867 41.2841 19.3139 41.5341C19.7609 41.7803 20.1075 42.1477 20.3537 42.6364C20.5999 43.125 20.723 43.7292 20.723 44.4489V50H19.0241V44.6534C19.0241 44.0208 18.8594 43.5265 18.5298 43.1705C18.2003 42.8106 17.7476 42.6307 17.1719 42.6307C16.7779 42.6307 16.4276 42.7159 16.1207 42.8864C15.8177 43.0568 15.5772 43.3068 15.3991 43.6364C15.2249 43.9621 15.1378 44.3561 15.1378 44.8182ZM26.6605 53.4545C25.9673 53.4545 25.3707 53.3636 24.8707 53.1818C24.3745 53 23.9692 52.7595 23.6548 52.4602C23.3404 52.161 23.1056 51.8333 22.9503 51.4773L24.4105 50.875C24.5128 51.0417 24.6491 51.2178 24.8196 51.4034C24.9938 51.5928 25.2287 51.7538 25.5241 51.8864C25.8234 52.0189 26.2079 52.0852 26.6776 52.0852C27.3215 52.0852 27.8537 51.928 28.2741 51.6136C28.6946 51.303 28.9048 50.8068 28.9048 50.125V48.4091H28.7969C28.6946 48.5947 28.5469 48.8011 28.3537 49.0284C28.1643 49.2557 27.9029 49.4527 27.5696 49.6193C27.2363 49.786 26.8026 49.8693 26.2685 49.8693C25.5791 49.8693 24.9579 49.7083 24.4048 49.3864C23.8556 49.0606 23.42 48.5814 23.098 47.9489C22.7798 47.3125 22.6207 46.5303 22.6207 45.6023C22.6207 44.6742 22.7779 43.8788 23.0923 43.2159C23.4105 42.553 23.8461 42.0455 24.3991 41.6932C24.9522 41.3371 25.5791 41.1591 26.2798 41.1591C26.8215 41.1591 27.259 41.25 27.5923 41.4318C27.9257 41.6098 28.1851 41.8182 28.3707 42.0568C28.5601 42.2955 28.706 42.5057 28.8082 42.6875H28.9332V41.2727H30.598V50.1932C30.598 50.9432 30.4238 51.5587 30.0753 52.0398C29.7268 52.5208 29.2552 52.8769 28.6605 53.108C28.0696 53.339 27.4029 53.4545 26.6605 53.4545ZM26.6435 48.4602C27.1321 48.4602 27.545 48.3466 27.8821 48.1193C28.223 47.8883 28.4806 47.5587 28.6548 47.1307C28.8329 46.6989 28.9219 46.1818 28.9219 45.5795C28.9219 44.9924 28.8348 44.4754 28.6605 44.0284C28.4863 43.5814 28.2306 43.233 27.8935 42.983C27.5563 42.7292 27.1397 42.6023 26.6435 42.6023C26.1321 42.6023 25.706 42.7348 25.3651 43C25.0241 43.2614 24.7666 43.6174 24.5923 44.0682C24.4219 44.5189 24.3366 45.0227 24.3366 45.5795C24.3366 46.1515 24.4238 46.6534 24.598 47.0852C24.7723 47.517 25.0298 47.8542 25.3707 48.0966C25.7154 48.339 26.1397 48.4602 26.6435 48.4602ZM36.5526 50.1761C35.7344 50.1761 35.0204 49.9886 34.4105 49.6136C33.8007 49.2386 33.3272 48.714 32.9901 48.0398C32.6529 47.3655 32.4844 46.5777 32.4844 45.6761C32.4844 44.7708 32.6529 43.9792 32.9901 43.3011C33.3272 42.6231 33.8007 42.0966 34.4105 41.7216C35.0204 41.3466 35.7344 41.1591 36.5526 41.1591C37.3707 41.1591 38.0848 41.3466 38.6946 41.7216C39.3045 42.0966 39.7779 42.6231 40.1151 43.3011C40.4522 43.9792 40.6207 44.7708 40.6207 45.6761C40.6207 46.5777 40.4522 47.3655 40.1151 48.0398C39.7779 48.714 39.3045 49.2386 38.6946 49.6136C38.0848 49.9886 37.3707 50.1761 36.5526 50.1761ZM36.5582 48.75C37.0885 48.75 37.5279 48.6098 37.8764 48.3295C38.2249 48.0492 38.4825 47.6761 38.6491 47.2102C38.8196 46.7443 38.9048 46.2311 38.9048 45.6705C38.9048 45.1136 38.8196 44.6023 38.6491 44.1364C38.4825 43.6667 38.2249 43.2898 37.8764 43.0057C37.5279 42.7216 37.0885 42.5795 36.5582 42.5795C36.0241 42.5795 35.581 42.7216 35.2287 43.0057C34.8802 43.2898 34.6207 43.6667 34.4503 44.1364C34.2836 44.6023 34.2003 45.1136 34.2003 45.6705C34.2003 46.2311 34.2836 46.7443 34.4503 47.2102C34.6207 47.6761 34.8802 48.0492 35.2287 48.3295C35.581 48.6098 36.0241 48.75 36.5582 48.75ZM42.517 50V41.2727H44.2159V50H42.517ZM43.375 39.9261C43.0795 39.9261 42.8258 39.8277 42.6136 39.6307C42.4053 39.4299 42.3011 39.1913 42.3011 38.9148C42.3011 38.6345 42.4053 38.3958 42.6136 38.1989C42.8258 37.9981 43.0795 37.8977 43.375 37.8977C43.6705 37.8977 43.9223 37.9981 44.1307 38.1989C44.3428 38.3958 44.4489 38.6345 44.4489 38.9148C44.4489 39.1913 44.3428 39.4299 44.1307 39.6307C43.9223 39.8277 43.6705 39.9261 43.375 39.9261ZM48.2003 44.8182V50H46.5014V41.2727H48.1321V42.6932H48.2401C48.4408 42.2311 48.7552 41.8598 49.1832 41.5795C49.6151 41.2992 50.1586 41.1591 50.8139 41.1591C51.4086 41.1591 51.9295 41.2841 52.3764 41.5341C52.8234 41.7803 53.17 42.1477 53.4162 42.6364C53.6624 43.125 53.7855 43.7292 53.7855 44.4489V50H52.0866V44.6534C52.0866 44.0208 51.9219 43.5265 51.5923 43.1705C51.2628 42.8106 50.8101 42.6307 50.2344 42.6307C49.8404 42.6307 49.4901 42.7159 49.1832 42.8864C48.8802 43.0568 48.6397 43.3068 48.4616 43.6364C48.2874 43.9621 48.2003 44.3561 48.2003 44.8182ZM59.723 53.4545C59.0298 53.4545 58.4332 53.3636 57.9332 53.1818C57.437 53 57.0317 52.7595 56.7173 52.4602C56.4029 52.161 56.1681 51.8333 56.0128 51.4773L57.473 50.875C57.5753 51.0417 57.7116 51.2178 57.8821 51.4034C58.0563 51.5928 58.2912 51.7538 58.5866 51.8864C58.8859 52.0189 59.2704 52.0852 59.7401 52.0852C60.384 52.0852 60.9162 51.928 61.3366 51.6136C61.7571 51.303 61.9673 50.8068 61.9673 50.125V48.4091H61.8594C61.7571 48.5947 61.6094 48.8011 61.4162 49.0284C61.2268 49.2557 60.9654 49.4527 60.6321 49.6193C60.2988 49.786 59.8651 49.8693 59.331 49.8693C58.6416 49.8693 58.0204 49.7083 57.4673 49.3864C56.9181 49.0606 56.4825 48.5814 56.1605 47.9489C55.8423 47.3125 55.6832 46.5303 55.6832 45.6023C55.6832 44.6742 55.8404 43.8788 56.1548 43.2159C56.473 42.553 56.9086 42.0455 57.4616 41.6932C58.0147 41.3371 58.6416 41.1591 59.3423 41.1591C59.884 41.1591 60.3215 41.25 60.6548 41.4318C60.9882 41.6098 61.2476 41.8182 61.4332 42.0568C61.6226 42.2955 61.7685 42.5057 61.8707 42.6875H61.9957V41.2727H63.6605V50.1932C63.6605 50.9432 63.4863 51.5587 63.1378 52.0398C62.7893 52.5208 62.3177 52.8769 61.723 53.108C61.1321 53.339 60.4654 53.4545 59.723 53.4545ZM59.706 48.4602C60.1946 48.4602 60.6075 48.3466 60.9446 48.1193C61.2855 47.8883 61.5431 47.5587 61.7173 47.1307C61.8954 46.6989 61.9844 46.1818 61.9844 45.5795C61.9844 44.9924 61.8973 44.4754 61.723 44.0284C61.5488 43.5814 61.2931 43.233 60.956 42.983C60.6188 42.7292 60.2022 42.6023 59.706 42.6023C59.1946 42.6023 58.7685 42.7348 58.4276 43C58.0866 43.2614 57.8291 43.6174 57.6548 44.0682C57.4844 44.5189 57.3991 45.0227 57.3991 45.5795C57.3991 46.1515 57.4863 46.6534 57.6605 47.0852C57.8348 47.517 58.0923 47.8542 58.4332 48.0966C58.7779 48.339 59.2022 48.4602 59.706 48.4602ZM79.9744 42.1477H78.2017C78.1335 41.7689 78.0066 41.4356 77.821 41.1477C77.6354 40.8598 77.4081 40.6155 77.1392 40.4148C76.8703 40.214 76.5691 40.0625 76.2358 39.9602C75.9063 39.858 75.5559 39.8068 75.1847 39.8068C74.5142 39.8068 73.9138 39.9754 73.3835 40.3125C72.857 40.6496 72.4403 41.1439 72.1335 41.7955C71.8305 42.447 71.679 43.2424 71.679 44.1818C71.679 45.1288 71.8305 45.928 72.1335 46.5795C72.4403 47.2311 72.8589 47.7235 73.3892 48.0568C73.9195 48.3902 74.5161 48.5568 75.179 48.5568C75.5464 48.5568 75.8949 48.5076 76.2244 48.4091C76.5578 48.3068 76.8589 48.1572 77.1278 47.9602C77.3968 47.7633 77.6241 47.5227 77.8097 47.2386C77.9991 46.9508 78.1297 46.6212 78.2017 46.25L79.9744 46.2557C79.8797 46.8277 79.696 47.3542 79.4233 47.8352C79.1544 48.3125 78.8078 48.7254 78.3835 49.0739C77.9631 49.4186 77.482 49.6856 76.9403 49.875C76.3987 50.0644 75.8078 50.1591 75.1676 50.1591C74.16 50.1591 73.2623 49.9205 72.4744 49.4432C71.6866 48.9621 71.0653 48.2746 70.6108 47.3807C70.16 46.4867 69.9347 45.4205 69.9347 44.1818C69.9347 42.9394 70.1619 41.8731 70.6165 40.983C71.071 40.089 71.6922 39.4034 72.4801 38.9261C73.268 38.4451 74.1638 38.2045 75.1676 38.2045C75.785 38.2045 76.3608 38.2936 76.8949 38.4716C77.4328 38.6458 77.9157 38.9034 78.3438 39.2443C78.7718 39.5814 79.1259 39.9943 79.4062 40.483C79.6866 40.9678 79.8759 41.5227 79.9744 42.1477ZM85.6151 50.1761C84.7969 50.1761 84.0829 49.9886 83.473 49.6136C82.8632 49.2386 82.3897 48.714 82.0526 48.0398C81.7154 47.3655 81.5469 46.5777 81.5469 45.6761C81.5469 44.7708 81.7154 43.9792 82.0526 43.3011C82.3897 42.6231 82.8632 42.0966 83.473 41.7216C84.0829 41.3466 84.7969 41.1591 85.6151 41.1591C86.4332 41.1591 87.1473 41.3466 87.7571 41.7216C88.367 42.0966 88.8404 42.6231 89.1776 43.3011C89.5147 43.9792 89.6832 44.7708 89.6832 45.6761C89.6832 46.5777 89.5147 47.3655 89.1776 48.0398C88.8404 48.714 88.367 49.2386 87.7571 49.6136C87.1473 49.9886 86.4332 50.1761 85.6151 50.1761ZM85.6207 48.75C86.151 48.75 86.5904 48.6098 86.9389 48.3295C87.2874 48.0492 87.545 47.6761 87.7116 47.2102C87.8821 46.7443 87.9673 46.2311 87.9673 45.6705C87.9673 45.1136 87.8821 44.6023 87.7116 44.1364C87.545 43.6667 87.2874 43.2898 86.9389 43.0057C86.5904 42.7216 86.151 42.5795 85.6207 42.5795C85.0866 42.5795 84.6435 42.7216 84.2912 43.0057C83.9427 43.2898 83.6832 43.6667 83.5128 44.1364C83.3461 44.6023 83.2628 45.1136 83.2628 45.6705C83.2628 46.2311 83.3461 46.7443 83.5128 47.2102C83.6832 47.6761 83.9427 48.0492 84.2912 48.3295C84.6435 48.6098 85.0866 48.75 85.6207 48.75ZM97.108 46.3807V41.2727H98.8125V50H97.142V48.4886H97.0511C96.8504 48.9545 96.5284 49.3428 96.0852 49.6534C95.6458 49.9602 95.0985 50.1136 94.4432 50.1136C93.8826 50.1136 93.3864 49.9905 92.9545 49.7443C92.5265 49.4943 92.1894 49.125 91.9432 48.6364C91.7008 48.1477 91.5795 47.5436 91.5795 46.8239V41.2727H93.2784V46.6193C93.2784 47.214 93.4432 47.6875 93.7727 48.0398C94.1023 48.392 94.5303 48.5682 95.0568 48.5682C95.375 48.5682 95.6913 48.4886 96.0057 48.3295C96.3239 48.1705 96.5871 47.9299 96.7955 47.608C97.0076 47.286 97.1117 46.8769 97.108 46.3807ZM101.095 50V41.2727H102.737V42.6591H102.828C102.987 42.1894 103.268 41.8201 103.669 41.5511C104.074 41.2784 104.533 41.142 105.044 41.142C105.15 41.142 105.275 41.1458 105.419 41.1534C105.567 41.161 105.682 41.1705 105.766 41.1818V42.8068C105.697 42.7879 105.576 42.767 105.402 42.7443C105.228 42.7178 105.054 42.7045 104.879 42.7045C104.478 42.7045 104.12 42.7898 103.805 42.9602C103.495 43.1269 103.249 43.3598 103.067 43.6591C102.885 43.9545 102.794 44.2917 102.794 44.6705V50H101.095ZM113.776 43.4034L112.236 43.6761C112.171 43.4792 112.069 43.2917 111.929 43.1136C111.793 42.9356 111.607 42.7898 111.372 42.6761C111.137 42.5625 110.844 42.5057 110.491 42.5057C110.01 42.5057 109.609 42.6136 109.287 42.8295C108.965 43.0417 108.804 43.3163 108.804 43.6534C108.804 43.9451 108.912 44.1799 109.128 44.358C109.344 44.536 109.692 44.6818 110.173 44.7955L111.56 45.1136C112.363 45.2992 112.961 45.5852 113.355 45.9716C113.749 46.358 113.946 46.8598 113.946 47.4773C113.946 48 113.795 48.4659 113.491 48.875C113.192 49.2803 112.774 49.5985 112.236 49.8295C111.702 50.0606 111.082 50.1761 110.378 50.1761C109.401 50.1761 108.603 49.9678 107.986 49.5511C107.368 49.1307 106.99 48.5341 106.849 47.7614L108.491 47.5114C108.594 47.9394 108.804 48.2633 109.122 48.483C109.44 48.6989 109.855 48.8068 110.366 48.8068C110.923 48.8068 111.368 48.6913 111.702 48.4602C112.035 48.2254 112.202 47.9394 112.202 47.6023C112.202 47.3295 112.099 47.1004 111.895 46.9148C111.694 46.7292 111.385 46.589 110.969 46.4943L109.491 46.1705C108.677 45.9848 108.075 45.6894 107.685 45.2841C107.298 44.8788 107.105 44.3655 107.105 43.7443C107.105 43.2292 107.249 42.7784 107.537 42.392C107.825 42.0057 108.223 41.7045 108.73 41.4886C109.238 41.2689 109.819 41.1591 110.474 41.1591C111.418 41.1591 112.16 41.3636 112.702 41.7727C113.243 42.178 113.601 42.7216 113.776 43.4034ZM119.575 50.1761C118.715 50.1761 117.975 49.9924 117.354 49.625C116.736 49.2538 116.259 48.733 115.922 48.0625C115.589 47.3883 115.422 46.5985 115.422 45.6932C115.422 44.7992 115.589 44.0114 115.922 43.3295C116.259 42.6477 116.729 42.1155 117.331 41.733C117.937 41.3504 118.645 41.1591 119.456 41.1591C119.948 41.1591 120.426 41.2405 120.888 41.4034C121.35 41.5663 121.765 41.822 122.132 42.1705C122.5 42.5189 122.789 42.9716 123.001 43.5284C123.214 44.0814 123.32 44.7538 123.32 45.5455V46.1477H116.382V44.875H121.655C121.655 44.428 121.564 44.0322 121.382 43.6875C121.2 43.339 120.945 43.0644 120.615 42.8636C120.289 42.6629 119.907 42.5625 119.467 42.5625C118.99 42.5625 118.573 42.6799 118.217 42.9148C117.865 43.1458 117.592 43.4489 117.399 43.8239C117.21 44.1951 117.115 44.5985 117.115 45.0341V46.0284C117.115 46.6117 117.217 47.108 117.422 47.517C117.63 47.9261 117.92 48.2386 118.291 48.4545C118.662 48.6667 119.096 48.7727 119.592 48.7727C119.914 48.7727 120.208 48.7273 120.473 48.6364C120.738 48.5417 120.967 48.4015 121.161 48.2159C121.354 48.0303 121.501 47.8011 121.604 47.5284L123.212 47.8182C123.083 48.2917 122.852 48.7064 122.518 49.0625C122.189 49.4148 121.774 49.6894 121.274 49.8864C120.778 50.0795 120.212 50.1761 119.575 50.1761ZM131.744 43.4034L130.205 43.6761C130.14 43.4792 130.038 43.2917 129.898 43.1136C129.761 42.9356 129.576 42.7898 129.341 42.6761C129.106 42.5625 128.813 42.5057 128.46 42.5057C127.979 42.5057 127.578 42.6136 127.256 42.8295C126.934 43.0417 126.773 43.3163 126.773 43.6534C126.773 43.9451 126.881 44.1799 127.097 44.358C127.313 44.536 127.661 44.6818 128.142 44.7955L129.528 45.1136C130.331 45.2992 130.93 45.5852 131.324 45.9716C131.718 46.358 131.915 46.8598 131.915 47.4773C131.915 48 131.763 48.4659 131.46 48.875C131.161 49.2803 130.742 49.5985 130.205 49.8295C129.67 50.0606 129.051 50.1761 128.347 50.1761C127.369 50.1761 126.572 49.9678 125.955 49.5511C125.337 49.1307 124.958 48.5341 124.818 47.7614L126.46 47.5114C126.563 47.9394 126.773 48.2633 127.091 48.483C127.409 48.6989 127.824 48.8068 128.335 48.8068C128.892 48.8068 129.337 48.6913 129.67 48.4602C130.004 48.2254 130.17 47.9394 130.17 47.6023C130.17 47.3295 130.068 47.1004 129.864 46.9148C129.663 46.7292 129.354 46.589 128.938 46.4943L127.46 46.1705C126.646 45.9848 126.044 45.6894 125.653 45.2841C125.267 44.8788 125.074 44.3655 125.074 43.7443C125.074 43.2292 125.218 42.7784 125.506 42.392C125.794 42.0057 126.191 41.7045 126.699 41.4886C127.206 41.2689 127.788 41.1591 128.443 41.1591C129.386 41.1591 130.129 41.3636 130.67 41.7727C131.212 42.178 131.57 42.7216 131.744 43.4034Z" fill="black"/>
</svg>
