<svg width="230" height="94" viewBox="0 0 230 94" fill="none" xmlns="http://www.w3.org/2000/svg">
<rect x="0.5" y="0.5" width="229" height="93" rx="15.5" fill="white"/>
<rect x="0.5" y="0.5" width="229" height="93" rx="15.5" stroke="#D9D9D9"/>
<path d="M77.2358 41.7614V39.2472L84.642 27.5455H86.7386V31.125H85.4602L80.4744 39.0256V39.1619H90.8125V41.7614H77.2358ZM85.5625 45V40.9943L85.5966 39.8693V27.5455H88.5795V45H85.5625Z" fill="black"/>
<path d="M87.3864 64.1818C87.3864 65.4242 87.1591 66.4924 86.7045 67.3864C86.25 68.2765 85.6269 68.9621 84.8352 69.4432C84.0473 69.9205 83.1515 70.1591 82.1477 70.1591C81.1402 70.1591 80.2405 69.9205 79.4489 69.4432C78.661 68.9621 78.0398 68.2746 77.5852 67.3807C77.1307 66.4867 76.9034 65.4205 76.9034 64.1818C76.9034 62.9394 77.1307 61.8731 77.5852 60.983C78.0398 60.089 78.661 59.4034 79.4489 58.9261C80.2405 58.4451 81.1402 58.2045 82.1477 58.2045C83.1515 58.2045 84.0473 58.4451 84.8352 58.9261C85.6269 59.4034 86.25 60.089 86.7045 60.983C87.1591 61.8731 87.3864 62.9394 87.3864 64.1818ZM85.6477 64.1818C85.6477 63.2348 85.4943 62.4375 85.1875 61.7898C84.8845 61.1383 84.4678 60.6458 83.9375 60.3125C83.411 59.9754 82.8144 59.8068 82.1477 59.8068C81.4773 59.8068 80.8788 59.9754 80.3523 60.3125C79.8258 60.6458 79.4091 61.1383 79.1023 61.7898C78.7992 62.4375 78.6477 63.2348 78.6477 64.1818C78.6477 65.1288 78.7992 65.928 79.1023 66.5795C79.4091 67.2273 79.8258 67.7197 80.3523 68.0568C80.8788 68.3902 81.4773 68.5568 82.1477 68.5568C82.8144 68.5568 83.411 68.3902 83.9375 68.0568C84.4678 67.7197 84.8845 67.2273 85.1875 66.5795C85.4943 65.928 85.6477 65.1288 85.6477 64.1818ZM91.1378 64.8182V70H89.4389V61.2727H91.0696V62.6932H91.1776C91.3783 62.2311 91.6927 61.8598 92.1207 61.5795C92.5526 61.2992 93.0961 61.1591 93.7514 61.1591C94.3461 61.1591 94.867 61.2841 95.3139 61.5341C95.7609 61.7803 96.1075 62.1477 96.3537 62.6364C96.5999 63.125 96.723 63.7292 96.723 64.4489V70H95.0241V64.6534C95.0241 64.0208 94.8594 63.5265 94.5298 63.1705C94.2003 62.8106 93.7476 62.6307 93.1719 62.6307C92.7779 62.6307 92.4276 62.7159 92.1207 62.8864C91.8177 63.0568 91.5772 63.3068 91.3991 63.6364C91.2249 63.9621 91.1378 64.3561 91.1378 64.8182ZM102.661 73.4545C101.967 73.4545 101.371 73.3636 100.871 73.1818C100.375 73 99.9692 72.7595 99.6548 72.4602C99.3404 72.161 99.1056 71.8333 98.9503 71.4773L100.411 70.875C100.513 71.0417 100.649 71.2178 100.82 71.4034C100.994 71.5928 101.229 71.7538 101.524 71.8864C101.823 72.0189 102.208 72.0852 102.678 72.0852C103.321 72.0852 103.854 71.928 104.274 71.6136C104.695 71.303 104.905 70.8068 104.905 70.125V68.4091H104.797C104.695 68.5947 104.547 68.8011 104.354 69.0284C104.164 69.2557 103.903 69.4527 103.57 69.6193C103.236 69.786 102.803 69.8693 102.268 69.8693C101.579 69.8693 100.958 69.7083 100.405 69.3864C99.8556 69.0606 99.42 68.5814 99.098 67.9489C98.7798 67.3125 98.6207 66.5303 98.6207 65.6023C98.6207 64.6742 98.7779 63.8788 99.0923 63.2159C99.4105 62.553 99.8461 62.0455 100.399 61.6932C100.952 61.3371 101.579 61.1591 102.28 61.1591C102.821 61.1591 103.259 61.25 103.592 61.4318C103.926 61.6098 104.185 61.8182 104.371 62.0568C104.56 62.2955 104.706 62.5057 104.808 62.6875H104.933V61.2727H106.598V70.1932C106.598 70.9432 106.424 71.5587 106.075 72.0398C105.727 72.5208 105.255 72.8769 104.661 73.108C104.07 73.339 103.403 73.4545 102.661 73.4545ZM102.643 68.4602C103.132 68.4602 103.545 68.3466 103.882 68.1193C104.223 67.8883 104.481 67.5587 104.655 67.1307C104.833 66.6989 104.922 66.1818 104.922 65.5795C104.922 64.9924 104.835 64.4754 104.661 64.0284C104.486 63.5814 104.231 63.233 103.893 62.983C103.556 62.7292 103.14 62.6023 102.643 62.6023C102.132 62.6023 101.706 62.7348 101.365 63C101.024 63.2614 100.767 63.6174 100.592 64.0682C100.422 64.5189 100.337 65.0227 100.337 65.5795C100.337 66.1515 100.424 66.6534 100.598 67.0852C100.772 67.517 101.03 67.8542 101.371 68.0966C101.715 68.339 102.14 68.4602 102.643 68.4602ZM112.553 70.1761C111.734 70.1761 111.02 69.9886 110.411 69.6136C109.801 69.2386 109.327 68.714 108.99 68.0398C108.653 67.3655 108.484 66.5777 108.484 65.6761C108.484 64.7708 108.653 63.9792 108.99 63.3011C109.327 62.6231 109.801 62.0966 110.411 61.7216C111.02 61.3466 111.734 61.1591 112.553 61.1591C113.371 61.1591 114.085 61.3466 114.695 61.7216C115.304 62.0966 115.778 62.6231 116.115 63.3011C116.452 63.9792 116.621 64.7708 116.621 65.6761C116.621 66.5777 116.452 67.3655 116.115 68.0398C115.778 68.714 115.304 69.2386 114.695 69.6136C114.085 69.9886 113.371 70.1761 112.553 70.1761ZM112.558 68.75C113.089 68.75 113.528 68.6098 113.876 68.3295C114.225 68.0492 114.482 67.6761 114.649 67.2102C114.82 66.7443 114.905 66.2311 114.905 65.6705C114.905 65.1136 114.82 64.6023 114.649 64.1364C114.482 63.6667 114.225 63.2898 113.876 63.0057C113.528 62.7216 113.089 62.5795 112.558 62.5795C112.024 62.5795 111.581 62.7216 111.229 63.0057C110.88 63.2898 110.621 63.6667 110.45 64.1364C110.284 64.6023 110.2 65.1136 110.2 65.6705C110.2 66.2311 110.284 66.7443 110.45 67.2102C110.621 67.6761 110.88 68.0492 111.229 68.3295C111.581 68.6098 112.024 68.75 112.558 68.75ZM118.517 70V61.2727H120.216V70H118.517ZM119.375 59.9261C119.08 59.9261 118.826 59.8277 118.614 59.6307C118.405 59.4299 118.301 59.1913 118.301 58.9148C118.301 58.6345 118.405 58.3958 118.614 58.1989C118.826 57.9981 119.08 57.8977 119.375 57.8977C119.67 57.8977 119.922 57.9981 120.131 58.1989C120.343 58.3958 120.449 58.6345 120.449 58.9148C120.449 59.1913 120.343 59.4299 120.131 59.6307C119.922 59.8277 119.67 59.9261 119.375 59.9261ZM124.2 64.8182V70H122.501V61.2727H124.132V62.6932H124.24C124.441 62.2311 124.755 61.8598 125.183 61.5795C125.615 61.2992 126.159 61.1591 126.814 61.1591C127.409 61.1591 127.929 61.2841 128.376 61.5341C128.823 61.7803 129.17 62.1477 129.416 62.6364C129.662 63.125 129.786 63.7292 129.786 64.4489V70H128.087V64.6534C128.087 64.0208 127.922 63.5265 127.592 63.1705C127.263 62.8106 126.81 62.6307 126.234 62.6307C125.84 62.6307 125.49 62.7159 125.183 62.8864C124.88 63.0568 124.64 63.3068 124.462 63.6364C124.287 63.9621 124.2 64.3561 124.2 64.8182ZM135.723 73.4545C135.03 73.4545 134.433 73.3636 133.933 73.1818C133.437 73 133.032 72.7595 132.717 72.4602C132.403 72.161 132.168 71.8333 132.013 71.4773L133.473 70.875C133.575 71.0417 133.712 71.2178 133.882 71.4034C134.056 71.5928 134.291 71.7538 134.587 71.8864C134.886 72.0189 135.27 72.0852 135.74 72.0852C136.384 72.0852 136.916 71.928 137.337 71.6136C137.757 71.303 137.967 70.8068 137.967 70.125V68.4091H137.859C137.757 68.5947 137.609 68.8011 137.416 69.0284C137.227 69.2557 136.965 69.4527 136.632 69.6193C136.299 69.786 135.865 69.8693 135.331 69.8693C134.642 69.8693 134.02 69.7083 133.467 69.3864C132.918 69.0606 132.482 68.5814 132.161 67.9489C131.842 67.3125 131.683 66.5303 131.683 65.6023C131.683 64.6742 131.84 63.8788 132.155 63.2159C132.473 62.553 132.909 62.0455 133.462 61.6932C134.015 61.3371 134.642 61.1591 135.342 61.1591C135.884 61.1591 136.321 61.25 136.655 61.4318C136.988 61.6098 137.248 61.8182 137.433 62.0568C137.623 62.2955 137.768 62.5057 137.871 62.6875H137.996V61.2727H139.661V70.1932C139.661 70.9432 139.486 71.5587 139.138 72.0398C138.789 72.5208 138.318 72.8769 137.723 73.108C137.132 73.339 136.465 73.4545 135.723 73.4545ZM135.706 68.4602C136.195 68.4602 136.607 68.3466 136.945 68.1193C137.286 67.8883 137.543 67.5587 137.717 67.1307C137.895 66.6989 137.984 66.1818 137.984 65.5795C137.984 64.9924 137.897 64.4754 137.723 64.0284C137.549 63.5814 137.293 63.233 136.956 62.983C136.619 62.7292 136.202 62.6023 135.706 62.6023C135.195 62.6023 134.768 62.7348 134.428 63C134.087 63.2614 133.829 63.6174 133.655 64.0682C133.484 64.5189 133.399 65.0227 133.399 65.5795C133.399 66.1515 133.486 66.6534 133.661 67.0852C133.835 67.517 134.092 67.8542 134.433 68.0966C134.778 68.339 135.202 68.4602 135.706 68.4602ZM155.974 62.1477H154.202C154.134 61.7689 154.007 61.4356 153.821 61.1477C153.635 60.8598 153.408 60.6155 153.139 60.4148C152.87 60.214 152.569 60.0625 152.236 59.9602C151.906 59.858 151.556 59.8068 151.185 59.8068C150.514 59.8068 149.914 59.9754 149.384 60.3125C148.857 60.6496 148.44 61.1439 148.134 61.7955C147.83 62.447 147.679 63.2424 147.679 64.1818C147.679 65.1288 147.83 65.928 148.134 66.5795C148.44 67.2311 148.859 67.7235 149.389 68.0568C149.92 68.3902 150.516 68.5568 151.179 68.5568C151.546 68.5568 151.895 68.5076 152.224 68.4091C152.558 68.3068 152.859 68.1572 153.128 67.9602C153.397 67.7633 153.624 67.5227 153.81 67.2386C153.999 66.9508 154.13 66.6212 154.202 66.25L155.974 66.2557C155.88 66.8277 155.696 67.3542 155.423 67.8352C155.154 68.3125 154.808 68.7254 154.384 69.0739C153.963 69.4186 153.482 69.6856 152.94 69.875C152.399 70.0644 151.808 70.1591 151.168 70.1591C150.16 70.1591 149.262 69.9205 148.474 69.4432C147.687 68.9621 147.065 68.2746 146.611 67.3807C146.16 66.4867 145.935 65.4205 145.935 64.1818C145.935 62.9394 146.162 61.8731 146.616 60.983C147.071 60.089 147.692 59.4034 148.48 58.9261C149.268 58.4451 150.164 58.2045 151.168 58.2045C151.785 58.2045 152.361 58.2936 152.895 58.4716C153.433 58.6458 153.916 58.9034 154.344 59.2443C154.772 59.5814 155.126 59.9943 155.406 60.483C155.687 60.9678 155.876 61.5227 155.974 62.1477ZM161.615 70.1761C160.797 70.1761 160.083 69.9886 159.473 69.6136C158.863 69.2386 158.39 68.714 158.053 68.0398C157.715 67.3655 157.547 66.5777 157.547 65.6761C157.547 64.7708 157.715 63.9792 158.053 63.3011C158.39 62.6231 158.863 62.0966 159.473 61.7216C160.083 61.3466 160.797 61.1591 161.615 61.1591C162.433 61.1591 163.147 61.3466 163.757 61.7216C164.367 62.0966 164.84 62.6231 165.178 63.3011C165.515 63.9792 165.683 64.7708 165.683 65.6761C165.683 66.5777 165.515 67.3655 165.178 68.0398C164.84 68.714 164.367 69.2386 163.757 69.6136C163.147 69.9886 162.433 70.1761 161.615 70.1761ZM161.621 68.75C162.151 68.75 162.59 68.6098 162.939 68.3295C163.287 68.0492 163.545 67.6761 163.712 67.2102C163.882 66.7443 163.967 66.2311 163.967 65.6705C163.967 65.1136 163.882 64.6023 163.712 64.1364C163.545 63.6667 163.287 63.2898 162.939 63.0057C162.59 62.7216 162.151 62.5795 161.621 62.5795C161.087 62.5795 160.643 62.7216 160.291 63.0057C159.943 63.2898 159.683 63.6667 159.513 64.1364C159.346 64.6023 159.263 65.1136 159.263 65.6705C159.263 66.2311 159.346 66.7443 159.513 67.2102C159.683 67.6761 159.943 68.0492 160.291 68.3295C160.643 68.6098 161.087 68.75 161.621 68.75ZM173.108 66.3807V61.2727H174.812V70H173.142V68.4886H173.051C172.85 68.9545 172.528 69.3428 172.085 69.6534C171.646 69.9602 171.098 70.1136 170.443 70.1136C169.883 70.1136 169.386 69.9905 168.955 69.7443C168.527 69.4943 168.189 69.125 167.943 68.6364C167.701 68.1477 167.58 67.5436 167.58 66.8239V61.2727H169.278V66.6193C169.278 67.214 169.443 67.6875 169.773 68.0398C170.102 68.392 170.53 68.5682 171.057 68.5682C171.375 68.5682 171.691 68.4886 172.006 68.3295C172.324 68.1705 172.587 67.9299 172.795 67.608C173.008 67.286 173.112 66.8769 173.108 66.3807ZM177.095 70V61.2727H178.737V62.6591H178.828C178.987 62.1894 179.268 61.8201 179.669 61.5511C180.074 61.2784 180.533 61.142 181.044 61.142C181.15 61.142 181.275 61.1458 181.419 61.1534C181.567 61.161 181.682 61.1705 181.766 61.1818V62.8068C181.697 62.7879 181.576 62.767 181.402 62.7443C181.228 62.7178 181.054 62.7045 180.879 62.7045C180.478 62.7045 180.12 62.7898 179.805 62.9602C179.495 63.1269 179.249 63.3598 179.067 63.6591C178.885 63.9545 178.794 64.2917 178.794 64.6705V70H177.095ZM189.776 63.4034L188.236 63.6761C188.171 63.4792 188.069 63.2917 187.929 63.1136C187.793 62.9356 187.607 62.7898 187.372 62.6761C187.137 62.5625 186.844 62.5057 186.491 62.5057C186.01 62.5057 185.609 62.6136 185.287 62.8295C184.965 63.0417 184.804 63.3163 184.804 63.6534C184.804 63.9451 184.912 64.1799 185.128 64.358C185.344 64.536 185.692 64.6818 186.173 64.7955L187.56 65.1136C188.363 65.2992 188.961 65.5852 189.355 65.9716C189.749 66.358 189.946 66.8598 189.946 67.4773C189.946 68 189.795 68.4659 189.491 68.875C189.192 69.2803 188.774 69.5985 188.236 69.8295C187.702 70.0606 187.082 70.1761 186.378 70.1761C185.401 70.1761 184.603 69.9678 183.986 69.5511C183.368 69.1307 182.99 68.5341 182.849 67.7614L184.491 67.5114C184.594 67.9394 184.804 68.2633 185.122 68.483C185.44 68.6989 185.855 68.8068 186.366 68.8068C186.923 68.8068 187.368 68.6913 187.702 68.4602C188.035 68.2254 188.202 67.9394 188.202 67.6023C188.202 67.3295 188.099 67.1004 187.895 66.9148C187.694 66.7292 187.385 66.589 186.969 66.4943L185.491 66.1705C184.677 65.9848 184.075 65.6894 183.685 65.2841C183.298 64.8788 183.105 64.3655 183.105 63.7443C183.105 63.2292 183.249 62.7784 183.537 62.392C183.825 62.0057 184.223 61.7045 184.73 61.4886C185.238 61.2689 185.819 61.1591 186.474 61.1591C187.418 61.1591 188.16 61.3636 188.702 61.7727C189.243 62.178 189.601 62.7216 189.776 63.4034ZM195.575 70.1761C194.715 70.1761 193.975 69.9924 193.354 69.625C192.736 69.2538 192.259 68.733 191.922 68.0625C191.589 67.3883 191.422 66.5985 191.422 65.6932C191.422 64.7992 191.589 64.0114 191.922 63.3295C192.259 62.6477 192.729 62.1155 193.331 61.733C193.937 61.3504 194.645 61.1591 195.456 61.1591C195.948 61.1591 196.426 61.2405 196.888 61.4034C197.35 61.5663 197.765 61.822 198.132 62.1705C198.5 62.5189 198.789 62.9716 199.001 63.5284C199.214 64.0814 199.32 64.7538 199.32 65.5455V66.1477H192.382V64.875H197.655C197.655 64.428 197.564 64.0322 197.382 63.6875C197.2 63.339 196.945 63.0644 196.615 62.8636C196.289 62.6629 195.907 62.5625 195.467 62.5625C194.99 62.5625 194.573 62.6799 194.217 62.9148C193.865 63.1458 193.592 63.4489 193.399 63.8239C193.21 64.1951 193.115 64.5985 193.115 65.0341V66.0284C193.115 66.6117 193.217 67.108 193.422 67.517C193.63 67.9261 193.92 68.2386 194.291 68.4545C194.662 68.6667 195.096 68.7727 195.592 68.7727C195.914 68.7727 196.208 68.7273 196.473 68.6364C196.738 68.5417 196.967 68.4015 197.161 68.2159C197.354 68.0303 197.501 67.8011 197.604 67.5284L199.212 67.8182C199.083 68.2917 198.852 68.7064 198.518 69.0625C198.189 69.4148 197.774 69.6894 197.274 69.8864C196.778 70.0795 196.212 70.1761 195.575 70.1761ZM207.744 63.4034L206.205 63.6761C206.14 63.4792 206.038 63.2917 205.898 63.1136C205.761 62.9356 205.576 62.7898 205.341 62.6761C205.106 62.5625 204.813 62.5057 204.46 62.5057C203.979 62.5057 203.578 62.6136 203.256 62.8295C202.934 63.0417 202.773 63.3163 202.773 63.6534C202.773 63.9451 202.881 64.1799 203.097 64.358C203.313 64.536 203.661 64.6818 204.142 64.7955L205.528 65.1136C206.331 65.2992 206.93 65.5852 207.324 65.9716C207.718 66.358 207.915 66.8598 207.915 67.4773C207.915 68 207.763 68.4659 207.46 68.875C207.161 69.2803 206.742 69.5985 206.205 69.8295C205.67 70.0606 205.051 70.1761 204.347 70.1761C203.369 70.1761 202.572 69.9678 201.955 69.5511C201.337 69.1307 200.958 68.5341 200.818 67.7614L202.46 67.5114C202.563 67.9394 202.773 68.2633 203.091 68.483C203.409 68.6989 203.824 68.8068 204.335 68.8068C204.892 68.8068 205.337 68.6913 205.67 68.4602C206.004 68.2254 206.17 67.9394 206.17 67.6023C206.17 67.3295 206.068 67.1004 205.864 66.9148C205.663 66.7292 205.354 66.589 204.938 66.4943L203.46 66.1705C202.646 65.9848 202.044 65.6894 201.653 65.2841C201.267 64.8788 201.074 64.3655 201.074 63.7443C201.074 63.2292 201.218 62.7784 201.506 62.392C201.794 62.0057 202.191 61.7045 202.699 61.4886C203.206 61.2689 203.788 61.1591 204.443 61.1591C205.386 61.1591 206.129 61.3636 206.67 61.7727C207.212 62.178 207.57 62.7216 207.744 63.4034Z" fill="black"/>
<rect x="20" y="20" width="40" height="40" rx="20" fill="#FCEFCD"/>
<g clip-path="url(#clip0_1077_181)">
<path d="M37 44.2001L32.8 40.0001L31.4 41.4001L37 47.0001L49 35.0001L47.6 33.6001L37 44.2001Z" fill="black"/>
</g>
<g clip-path="url(#clip1_1077_181)">
<path d="M45 40C42.24 40 40 42.24 40 45C40 47.76 42.24 50 45 50C47.76 50 50 47.76 50 45C50 42.24 47.76 40 45 40ZM46.65 47.35L44.5 45.2V42H45.5V44.79L47.35 46.64L46.65 47.35ZM46 31H42.82C42.4 29.84 41.3 29 40 29C38.7 29 37.6 29.84 37.18 31H34C32.9 31 32 31.9 32 33V48C32 49.1 32.9 50 34 50H40.11C39.52 49.43 39.04 48.75 38.69 48H34V33H36V36H44V33H46V38.08C46.71 38.18 47.38 38.39 48 38.68V33C48 31.9 47.1 31 46 31ZM40 33C39.45 33 39 32.55 39 32C39 31.45 39.45 31 40 31C40.55 31 41 31.45 41 32C41 32.55 40.55 33 40 33Z" fill="#F7C244"/>
</g>
<defs>
<clipPath id="clip0_1077_181">
<rect width="24" height="24" fill="white" transform="translate(28 28)"/>
</clipPath>
<clipPath id="clip1_1077_181">
<rect width="24" height="24" fill="white" transform="translate(28 28)"/>
</clipPath>
</defs>
</svg>
