<svg width="40" height="40" viewBox="0 0 40 40" fill="none" xmlns="http://www.w3.org/2000/svg">
<rect width="40" height="40" rx="20" fill="#FFF8F8"/>
<g clip-path="url(#clip0_1_882)">
<path d="M15 23H22V25H15V23ZM15 19H25V21H15V19ZM15 15H25V17H15V15ZM27 11H22.82C22.4 9.84 21.3 9 20 9C18.7 9 17.6 9.84 17.18 11H13C12.86 11 12.73 11.01 12.6 11.04C12.21 11.12 11.86 11.32 11.59 11.59C11.41 11.77 11.26 11.99 11.16 12.23C11.06 12.46 11 12.72 11 13V27C11 27.27 11.06 27.54 11.16 27.78C11.26 28.02 11.41 28.23 11.59 28.42C11.86 28.69 12.21 28.89 12.6 28.97C12.73 28.99 12.86 29 13 29H27C28.1 29 29 28.1 29 27V13C29 11.9 28.1 11 27 11ZM20 10.75C20.41 10.75 20.75 11.09 20.75 11.5C20.75 11.91 20.41 12.25 20 12.25C19.59 12.25 19.25 11.91 19.25 11.5C19.25 11.09 19.59 10.75 20 10.75ZM27 27H13V13H27V27Z" fill="#FF5956"/>
</g>
<defs>
<clipPath id="clip0_1_882">
<rect width="24" height="24" fill="white" transform="translate(8 8)"/>
</clipPath>
</defs>
</svg>
