<svg width="79" height="42" viewBox="0 0 79 42" fill="none" xmlns="http://www.w3.org/2000/svg">
<rect x="0.5" y="0.5" width="78" height="41" rx="20.5" fill="white"/>
<rect x="0.5" y="0.5" width="78" height="41" rx="20.5" stroke="#F2F2F2"/>
<rect x="39" y="5" width="32" height="32" rx="16" fill="#FCECE1"/>
<path d="M48.1186 27V16.8182H51.7479C52.54 16.8182 53.1963 16.9624 53.7166 17.2507C54.237 17.5391 54.6264 17.9335 54.8849 18.4339C55.1435 18.9311 55.2727 19.4912 55.2727 20.1143C55.2727 20.7408 55.1418 21.3042 54.88 21.8047C54.6214 22.3018 54.2304 22.6963 53.7067 22.9879C53.1863 23.2763 52.5317 23.4205 51.7429 23.4205H49.2472V22.1179H51.6037C52.1042 22.1179 52.5102 22.0317 52.8217 21.8594C53.1333 21.6837 53.362 21.4451 53.5078 21.1435C53.6536 20.8419 53.7266 20.4988 53.7266 20.1143C53.7266 19.7299 53.6536 19.3885 53.5078 19.0902C53.362 18.7919 53.1316 18.5582 52.8168 18.3892C52.5052 18.2202 52.0942 18.1357 51.5838 18.1357H49.6548V27H48.1186ZM57.0737 27V16.8182H60.7029C61.4951 16.8182 62.1513 16.9624 62.6717 17.2507C63.1921 17.5391 63.5815 17.9335 63.84 18.4339C64.0985 18.9311 64.2278 19.4912 64.2278 20.1143C64.2278 20.7408 64.0969 21.3042 63.835 21.8047C63.5765 22.3018 63.1854 22.6963 62.6618 22.9879C62.1414 23.2763 61.4868 23.4205 60.698 23.4205H58.2022V22.1179H60.5588C61.0592 22.1179 61.4653 22.0317 61.7768 21.8594C62.0884 21.6837 62.3171 21.4451 62.4629 21.1435C62.6087 20.8419 62.6816 20.4988 62.6816 20.1143C62.6816 19.7299 62.6087 19.3885 62.4629 19.0902C62.3171 18.7919 62.0867 18.5582 61.7718 18.3892C61.4603 18.2202 61.0493 18.1357 60.5389 18.1357H58.6099V27H57.0737Z" fill="black"/>
<path d="M14.25 21H27.75" stroke="black" stroke-width="1.5" stroke-linecap="round" stroke-linejoin="round"/>
<path d="M14.25 16.5H27.75" stroke="black" stroke-width="1.5" stroke-linecap="round" stroke-linejoin="round"/>
<path d="M14.25 25.5H27.75" stroke="black" stroke-width="1.5" stroke-linecap="round" stroke-linejoin="round"/>
</svg>
