<svg width="23" height="22" viewBox="0 0 23 22" fill="none" xmlns="http://www.w3.org/2000/svg">
<path fill-rule="evenodd" clip-rule="evenodd" d="M16.2589 0C20.103 0 22.6857 2.6158 22.6857 6.5076V15.4924C22.6857 19.3842 20.103 22 16.2577 22H6.42573C2.58164 22 0 19.3842 0 15.4924V6.5076C0 2.6158 2.58164 0 6.42573 0H16.2589ZM16.2589 1.65H6.42573C3.55599 1.65 1.70143 3.5563 1.70143 6.5076V15.4924C1.70143 18.4437 3.55599 20.35 6.42573 20.35H16.2577C19.1286 20.35 20.9843 18.4437 20.9843 15.4924V6.5076C20.9843 3.5563 19.1286 1.65 16.2589 1.65Z" fill="#D9D9D9"/>
</svg>
