<svg width="23" height="22" viewBox="0 0 23 22" fill="none" xmlns="http://www.w3.org/2000/svg">
<path fill-rule="evenodd" clip-rule="evenodd" d="M16.2019 0C20.0326 0 22.6063 2.6158 22.6063 6.5076V15.4924C22.6063 19.3842 20.0326 22 16.2008 22H6.40323C2.5726 22 0 19.3842 0 15.4924V6.5076C0 2.6158 2.5726 0 6.40323 0H16.2019ZM16.2019 1.65H6.40323C3.54354 1.65 1.69547 3.5563 1.69547 6.5076V15.4924C1.69547 18.4437 3.54354 20.35 6.40323 20.35H16.2008C19.0616 20.35 20.9108 18.4437 20.9108 15.4924V6.5076C20.9108 3.5563 19.0616 1.65 16.2019 1.65Z" fill="#D9D9D9"/>
</svg>
