<svg width="21" height="20" viewBox="0 0 21 20" fill="none" xmlns="http://www.w3.org/2000/svg">
<path d="M10.356 -5.55376e-10C4.63514 -2.48576e-10 2.40031e-10 4.47581 5.36286e-10 10C8.3254e-10 15.5242 4.63514 20 10.356 20C16.0768 20 20.712 15.5242 20.712 10C20.712 4.47581 16.0768 -8.62177e-10 10.356 -5.55376e-10ZM12.7404 14.1169L9.05731 11.5323C8.92786 11.4395 8.85269 11.2944 8.85269 11.1411L8.85269 4.35484C8.85269 4.08871 9.07819 3.87097 9.35379 3.87097L11.3582 3.87097C11.6338 3.87097 11.8593 4.08871 11.8593 4.35484L11.8593 9.90726L14.5109 11.7702C14.7364 11.9274 14.7823 12.2298 14.6195 12.4476L13.4419 14.0121C13.279 14.2258 12.9659 14.2742 12.7404 14.1169Z" fill="#FE794F"/>
</svg>
