<svg width="21" height="14" viewBox="0 0 21 14" fill="none" xmlns="http://www.w3.org/2000/svg">
<path d="M12.117 0.0017395L1.72276 0.0017395C0.771278 0.0017395 0 0.746505 0 1.66528L6.27479e-10 11.7022C6.76752e-10 12.621 0.771278 13.3658 1.72276 13.3658L12.117 13.3658C13.0685 13.3658 13.8397 12.621 13.8397 11.7022L13.8397 1.66528C13.8397 0.746505 13.0685 0.0017395 12.117 0.0017395ZM18.9432 1.31378L14.9931 3.94482L14.9931 9.42267L18.9432 12.0502C19.7072 12.5583 20.7596 12.0398 20.7596 11.1523L20.7596 2.21167C20.7596 1.3277 19.7108 0.805668 18.9432 1.31378Z" fill="#31B5A5"/>
</svg>
