<svg width="24" height="24" viewBox="0 0 24 24" fill="none" xmlns="http://www.w3.org/2000/svg">
<path d="M12 22C10.0222 22 8.08879 21.4135 6.4443 20.3147C4.79981 19.2159 3.51809 17.6541 2.76121 15.8268C2.00433 13.9996 1.8063 11.9889 2.19215 10.0491C2.578 8.10929 3.53041 6.32746 4.92894 4.92893C6.32746 3.53041 8.10929 2.578 10.0491 2.19215C11.9889 1.8063 13.9996 2.00433 15.8268 2.76121C17.6541 3.51808 19.2159 4.79981 20.3147 6.4443C21.4135 8.08879 22 10.0222 22 12C22 14.6522 20.9464 17.1957 19.0711 19.0711C17.1957 20.9464 14.6522 22 12 22V22ZM12 4.14286C10.446 4.14286 8.92691 4.60367 7.63481 5.46702C6.34271 6.33038 5.33564 7.5575 4.74095 8.9932C4.14626 10.4289 3.99066 12.0087 4.29383 13.5329C4.597 15.057 5.34532 16.457 6.44416 17.5558C7.54301 18.6547 8.94301 19.403 10.4672 19.7062C11.9913 20.0093 13.5711 19.8537 15.0068 19.259C16.4425 18.6644 17.6696 17.6573 18.533 16.3652C19.3963 15.0731 19.8571 13.554 19.8571 12C19.8534 9.91732 19.0244 7.92101 17.5517 6.44833C16.079 4.97565 14.0827 4.14663 12 4.14286V4.14286Z" fill="white"/>
<path d="M12 17.7143C11.717 17.7106 11.4466 17.5965 11.2465 17.3964C11.0463 17.1962 10.9323 16.9259 10.9286 16.6428V12.3571C10.9286 12.073 11.0414 11.8005 11.2424 11.5995C11.4433 11.3986 11.7158 11.2857 12 11.2857C12.2841 11.2857 12.5567 11.3986 12.7576 11.5995C12.9585 11.8005 13.0714 12.073 13.0714 12.3571V16.6428C13.0677 16.9259 12.9536 17.1962 12.7535 17.3964C12.5534 17.5965 12.283 17.7106 12 17.7143Z" fill="white"/>
<path d="M12 9.85714C12.789 9.85714 13.4286 9.21755 13.4286 8.42857C13.4286 7.63959 12.789 7 12 7C11.211 7 10.5714 7.63959 10.5714 8.42857C10.5714 9.21755 11.211 9.85714 12 9.85714Z" fill="white"/>
</svg>
