<svg width="14" height="14" viewBox="0 0 14 14" fill="none" xmlns="http://www.w3.org/2000/svg">
<path d="M10.038 0C12.411 0 14 1.666 14 4.144V9.8637C14 12.334 12.411 14 10.038 14H3.969C1.596 14 0 12.334 0 9.8637V4.144C0 1.666 1.596 0 3.969 0H10.038ZM9.926 4.9C9.688 4.662 9.296 4.662 9.058 4.9L6.167 7.791L4.942 6.566C4.704 6.328 4.312 6.328 4.074 6.566C3.836 6.804 3.836 7.189 4.074 7.434L5.74 9.093C5.859 9.212 6.013 9.268 6.167 9.268C6.328 9.268 6.482 9.212 6.601 9.093L9.926 5.768C10.164 5.53 10.164 5.145 9.926 4.9Z" fill="#148B47"/>
</svg>
